<svg xmlns="http://www.w3.org/2000/svg" xmlns:xlink="http://www.w3.org/1999/xlink" width="730pt" height="154pt" viewBox="0 0 730 154"><g id="graph0" class="graph" transform="scale(1 1) rotate(0) translate(4 150)"><title>MooseVariableBase</title><polygon fill="#fff" stroke="none" points="-4 4 -4 -150 726 -150 726 4 -4 4"/><g id="node1" class="node"><title>Node1</title><polygon fill="#bfbfbf" stroke="#000" points="0 -47.5 0 -66.5 119 -66.5 119 -47.5 0 -47.5"/><text x="59.5" y="-54.5" font-family="Courier,monospace" font-size="10" text-anchor="middle">MooseVariableBase</text></g><g id="node2" class="node"><title>Node2</title><g id="a_node2"><a target="_top" xlink:href="classMooseVariableFEBase.html" xlink:title="MooseVariableFEBase"><polygon fill="#fff" stroke="#000" points="155 -66.5 155 -85.5 286 -85.5 286 -66.5 155 -66.5"/><text x="220.5" y="-73.5" font-family="Courier,monospace" font-size="10" text-anchor="middle">MooseVariableFEBase</text></a></g></g><g id="edge1" class="edge"><title>Node1-&gt;Node2</title><path fill="none" stroke="#191970" d="M129.436,-65.2376C137.87,-66.2455 146.466,-67.2727 154.835,-68.2727"/><polygon fill="#191970" stroke="#191970" points="129.599 -61.732 119.254 -64.021 128.768 -68.683 129.599 -61.732"/></g><g id="node8" class="node"><title>Node8</title><g id="a_node8"><a target="_top" xlink:href="classMooseVariableScalar.html" xlink:title="Class for scalar variables (they are different)."><polygon fill="#fff" stroke="#000" points="155 -28.5 155 -47.5 286 -47.5 286 -28.5 155 -28.5"/><text x="220.5" y="-35.5" font-family="Courier,monospace" font-size="10" text-anchor="middle">MooseVariableScalar</text></a></g></g><g id="edge7" class="edge"><title>Node1-&gt;Node8</title><path fill="none" stroke="#191970" d="M129.436,-48.7624C137.87,-47.7545 146.466,-46.7273 154.835,-45.7273"/><polygon fill="#191970" stroke="#191970" points="128.768 -45.317 119.254 -49.979 129.599 -52.268 128.768 -45.317"/></g><g id="node3" class="node"><title>Node3</title><g id="a_node3"><a target="_top" xlink:href="classMooseVariableFE.html" xlink:title="Class for stuff related to variables."><polygon fill="#fff" stroke="#000" points="322 -126.5 322 -145.5 513 -145.5 513 -126.5 322 -126.5"/><text x="417.5" y="-133.5" font-family="Courier,monospace" font-size="10" text-anchor="middle">MooseVariableFE&lt; OutputType &gt;</text></a></g></g><g id="edge2" class="edge"><title>Node2-&gt;Node3</title><path fill="none" stroke="#191970" d="M251.236,-89.8656C270.963,-98.6285 297.614,-109.646 322,-117 334.177,-120.672 347.452,-123.838 360.101,-126.475"/><polygon fill="#191970" stroke="#191970" points="252.43 -86.565 241.875 -85.646 249.554 -92.946 252.43 -86.565"/></g><g id="node4" class="node"><title>Node4</title><g id="a_node4"><a target="_top" xlink:href="classMooseVariableFE.html" xlink:title="MooseVariableFE\&lt; Real \&gt;"><polygon fill="#fff" stroke="#000" points="340 -88.5 340 -107.5 495 -107.5 495 -88.5 340 -88.5"/><text x="417.5" y="-95.5" font-family="Courier,monospace" font-size="10" text-anchor="middle">MooseVariableFE&lt; Real &gt;</text></a></g></g><g id="edge3" class="edge"><title>Node2-&gt;Node4</title><path fill="none" stroke="#191970" d="M296.388,-84.4489C310.623,-86.0549 325.539,-87.7377 339.828,-89.3499"/><polygon fill="#191970" stroke="#191970" points="296.491 -80.938 286.161 -83.295 295.706 -87.894 296.491 -80.938"/></g><g id="node6" class="node"><title>Node6</title><g id="a_node6"><a target="_top" xlink:href="classMooseVariableFE.html" xlink:title="MooseVariableFE\&lt; RealVector\lValue \&gt;"><polygon fill="#fff" stroke="#000" points="328 -39 328 -69 507 -69 507 -39 328 -39"/><text x="336" y="-57" font-family="Courier,monospace" font-size="10" text-anchor="start">MooseVariableFE&lt; RealVector</text><text x="417.5" y="-46" font-family="Courier,monospace" font-size="10" text-anchor="middle">Value &gt;</text></a></g></g><g id="edge5" class="edge"><title>Node2-&gt;Node6</title><path fill="none" stroke="#191970" d="M296.294,-67.5617C306.564,-66.4031 317.189,-65.2043 327.68,-64.0208"/><polygon fill="#191970" stroke="#191970" points="295.706 -64.106 286.161 -68.705 296.491 -71.062 295.706 -64.106"/></g><g id="node7" class="node"><title>Node7</title><g id="a_node7"><a target="_top" xlink:href="classMooseVariableFE.html" xlink:title="MooseVariableFE\&lt; T \&gt;"><polygon fill="#fff" stroke="#000" points="349 -.5 349 -19.5 486 -19.5 486 -.5 349 -.5"/><text x="417.5" y="-7.5" font-family="Courier,monospace" font-size="10" text-anchor="middle">MooseVariableFE&lt; T &gt;</text></a></g></g><g id="edge6" class="edge"><title>Node2-&gt;Node7</title><path fill="none" stroke="#191970" d="M271.743,-63.1365C276.655,-61.3067 281.486,-59.2648 286,-57 303.877,-48.0318 303.788,-38.2652 322,-30 331.621,-25.6339 342.229,-22.2056 352.757,-19.5178"/><polygon fill="#191970" stroke="#191970" points="270.58 -59.835 262.261 -66.397 272.856 -66.455 270.58 -59.835"/></g><g id="node5" class="node"><title>Node5</title><g id="a_node5"><a target="_top" xlink:href="classMooseVariableConstMonomial.html" xlink:title="MooseVariableConstMonomial"><polygon fill="#fff" stroke="#000" points="549 -88.5 549 -107.5 722 -107.5 722 -88.5 549 -88.5"/><text x="635.5" y="-95.5" font-family="Courier,monospace" font-size="10" text-anchor="middle">MooseVariableConstMonomial</text></a></g></g><g id="edge4" class="edge"><title>Node4-&gt;Node5</title><path fill="none" stroke="#191970" d="M505.541,-98C519.803,-98 534.571,-98 548.799,-98"/><polygon fill="#191970" stroke="#191970" points="505.262 -94.5 495.262 -98 505.262 -101.5 505.262 -94.5"/></g></g></svg>